<?xml version="1.0" encoding="utf-8"?>
<!-- Generator: Adobe Illustrator 19.0.0, SVG Export Plug-In . SVG Version: 6.00 Build 0)  -->
<svg version="1.1" id="Layer_1" xmlns="http://www.w3.org/2000/svg" xmlns:xlink="http://www.w3.org/1999/xlink" x="0px" y="0px"
	 viewBox="0 0 226.8 226.8" style="enable-background:new 0 0 226.8 226.8;" xml:space="preserve">
<style type="text/css">
	.st0{fill:none;stroke:#FFFFFF;stroke-width:2;stroke-miterlimit:10;}
	.st1{fill:none;stroke:#FFFFFF;stroke-width:0.5;stroke-miterlimit:10;}
	.st2{fill:#FFFFFF;}
	.st3{fill:none;}
</style>
<g id="Layer_1_1_">
	<polygon id="XMLID_1_" class="st0" points="187.1,156 113.4,198.5 39.7,156 39.7,70.8 113.4,28.3 187.1,70.8 	"/>
	<polygon id="XMLID_2_" class="st1" points="183.2,153.7 113.4,194 43.6,153.7 43.6,73.1 113.4,32.8 183.2,73.1 	"/>
</g>
<g id="Layer_2">
	<g>
		<path class="st2" d="M112.2,96.6c-0.8,0-1.4-0.6-1.5-1.4c-0.1-1.3-0.3-3-0.6-3.2c-0.4-0.4-1-0.7-1.7-0.7h-1.8h-1.8
			c-1.3,0-5.7,0-10,0H88c-1.4,0-2.5,1.1-2.5,2.5v1.9c0,1.4-1.1,2.4-2.5,2.4l0,0c-1.4,0-2.5-1.1-2.5-2.4v-6.8v-0.4h0.2
			c0-1,0.8-1.8,1.8-1.8H93c5.8,0,11.5,0,11.8,0h4.2h4.2h12.2h12.2c0.7,0,1.3-0.3,1.7-0.7c0.4-0.4,0.7-1,0.7-1.7V82v-2.3
			c0-0.4,0-1.7,0-3.1s0-2.9,0-3.7c0-1.3,0.7-1.2,1.6-0.7c0.9,0.4,1.3-0.3,2.4-0.3l1-0.1v1.1c0,0,0,3,0,6.6s0,7.6,0,9.7
			c0,0.7-0.3,1.3-0.7,1.7c-0.4,0.4-1,0.7-1.7,0.7h-10.5h-10.5h-1.8H118c-0.7,0-1.3,0.3-1.7,0.7s-0.7,1-0.7,1.7v1.1
			c0,0.8-0.7,1.5-1.5,1.5L112.2,96.6z"/>
		<path class="st2" d="M110.8,133.5v-27.1c0-0.7,0.6-1.3,1.3-1.3h2.2c0.7,0,1.3,0.6,1.3,1.3v5.6c0,2.3,0,4.7,0,7.1v14.4
			c0,1-0.8,1.7-1.7,1.7h-1.4C111.6,135.2,110.8,134.4,110.8,133.5z"/>
		<path class="st2" d="M114,143.7c0.9,0,1.6,0.7,1.6,1.6v15.7c0,0.7-0.3,1.3-0.7,1.7c-0.4,0.4-1,0.7-1.7,0.7s-1.3-0.3-1.7-0.7
			s-0.7-1-0.7-1.7v-15.7c0-0.9,0.7-1.6,1.6-1.6L114,143.7z"/>
	</g>
</g>
<g id="Layer_3">
	<g>
	</g>
</g>
<g id="Layer_4">
	<path class="st2" d="M154.1,105.1L154.1,105.1c-2.7,0-4.9-2.2-4.9-4.9l0,0c0-2.7,2.2-4.9,4.9-4.9l0,0c2.7,0,4.9,2.2,4.9,4.9l0,0
		C159.1,102.9,156.8,105.1,154.1,105.1z"/>
	<path class="st2" d="M64.2,144.6L64.2,144.6c-2.7,0-4.9-2.2-4.9-4.9l0,0c0-2.7,2.2-4.9,4.9-4.9l0,0c2.7,0,4.9,2.2,4.9,4.9l0,0
		C69.1,142.4,66.9,144.6,64.2,144.6z"/>
	<path class="st2" d="M113.2,167.8L113.2,167.8c-2.7,0-4.9-2.2-4.9-4.9l0,0c0-2.7,2.2-4.9,4.9-4.9l0,0c2.7,0,4.9,2.2,4.9,4.9l0,0
		C118.2,165.5,116,167.8,113.2,167.8z"/>
	<path class="st2" d="M142.6,76.7L142.6,76.7c-2.7,0-4.9-2.2-4.9-4.9l0,0c0-2.7,2.2-4.9,4.9-4.9l0,0c2.7,0,4.9,2.2,4.9,4.9l0,0
		C147.6,74.5,145.3,76.7,142.6,76.7z"/>
	<path class="st2" d="M82.9,103.1L82.9,103.1c-2.7,0-4.9-2.2-4.9-4.9l0,0c0-2.7,2.2-4.9,4.9-4.9l0,0c2.7,0,4.9,2.2,4.9,4.9l0,0
		C87.8,100.9,85.6,103.1,82.9,103.1z"/>
</g>
<path class="st3" d="M115.6,96.5h-4.8H115.6z"/>
<path class="st2" d="M117.2,121.5c0,0.5,0.4,0.9,0.9,0.9h2.8c1.2,0,2.1,1,2.1,2.1v0.5c0,0,0,0.9,0,2.6c0,2.6-1,4.9-2.8,6.7
	c-1.1,1.1-2.3,1.9-3.6,2.3c-1,0.3-2,0.5-3.1,0.5c-1,0-1.8,0-2.5,0s-1.4,0-1.9,0c-2.1,0-3.2,0-3.2,0s-33.9,0-41.7,0h0.1v4.8
	c7.3,0,37.6,0,38.2,0c5,0,8.7,0,11.2,0c1.4,0,2.7-0.1,4-0.5c1.2-0.4,2.4-0.9,3.5-1.6c2-1.3,3.6-3.1,4.9-5.2s1.9-4.4,1.9-7
	c0-0.9,0-2.2,0-3.8v-4.2c0-1.2-1-2.1-2.1-2.1h-4.2h-3.6c-0.5,0-0.9,0.4-0.9,0.9V121.5z"/>
<path class="st2" d="M109,118.5c0-0.5-0.4-1-1-1h-1.9c-1.2,0-2.1-1-2.1-2.1V115c0-0.1,0-0.9,0-2.6c0-2.6,1-4.9,2.8-6.7
	c1.8-1.9,4.1-2.8,6.7-2.8c0.9,0,1.8,0,2.5,0c0.7,0,1.3,0,1.8,0c2.1,0,3.2,0,3.2,0c0.1,0,23.5,0,31.1,0c1.3,0,2.3-1.2,2-2.5
	c0-0.2-0.1-0.4-0.1-0.6c-0.1-1-1-1.7-2-1.7h-38.5c-1.4,0-2.7,0.2-4,0.6c-1.3,0.4-2.5,0.9-3.6,1.6c-2.1,1.3-3.7,3-4.9,5.1
	c-1.3,2.2-1.9,4.5-1.9,7.1c0,1,0,1.9,0,2.6s0,1.4,0,1.9c0,2.2,0,3.3,0,3.4c0,1.2,1,2.1,2.1,2.1h6.8c0.5,0,1-0.4,1-1V118.5z"/>
</svg>
